# xmcd
#
# Track frame offsets:
#	150
#	16914
#	33507
#	53533
#	70204
#	90245
#	105987
#	131354
#	148243
#	172810
#	191719
#	211360
#	242147
#
# Disc length: 3277 seconds
# Revision: 0
# Processed by: cddbd v1.5.2PL0 Copyright (c) Steve Scherf et al.
# Submitted via: dBpowerAMP V12.0
#
DISCID=a70ccb0d
DTITLE=BonJovi,Sayreville,NJ~refJonBonJovi - This Left Feels Right
DYEAR=2003
DGENRE=Pop/Rock
TTITLE0=Wanted Dead or Alive
TTITLE1=Livin' on a Prayer [feat. Olivia d'Abo]
TTITLE2=Bad Medicine
TTITLE3=It's My Life
TTITLE4=Lay Your Hands on Me
TTITLE5=You Give Love a Bad Name
TTITLE6=Bed of Roses
TTITLE7=Everyday
TTITLE8=Born to Be My Baby
TTITLE9=Keep the Faith
TTITLE10=I'll Be There for You
TTITLE11=Always
TTITLE12=DATA
EXTD=
EXTT0=
EXTT1=
EXTT2=
EXTT3=
EXTT4=
EXTT5=
EXTT6=
EXTT7=
EXTT8=
EXTT9=
EXTT10=
EXTT11=
EXTT12=
PLAYORDER=
